<svg width="575.8722045898437px" height="122px" xmlns="http://www.w3.org/2000/svg" viewBox="-37.93610229492185 14 575.8722045898437 122" style="background: rgba(0, 0, 0, 0);" preserveAspectRatio="xMidYMid"><defs><filter id="editing-extrusion" x="-100%" y="-100%" width="300%" height="300%"><feFlood result="color1" flood-color="#444"></feFlood><feConvolveMatrix order="8,8" divisor="1" kernelMatrix="1 0 0 0 0 0 0 0 0 1 0 0 0 0 0 0 0 0 1 0 0 0 0 0 0 0 0 1 0 0 0 0 0 0 0 0 1 0 0 0 0 0 0 0 0 1 0 0 0 0 0 0 0 0 1 0 0 0 0 0 0 0 0 1" in="SourceAlpha" result="extrude"></feConvolveMatrix><feComposite in="color1" in2="extrude" result="comp-extrude" operator="in"></feComposite><feOffset dx="4" dy="4" in="comp-extrude" result="offset-extrude"></feOffset><feMerge><feMergeNode in="offset-extrude"></feMergeNode><feMergeNode in="SourceGraphic"></feMergeNode></feMerge></filter></defs><g filter="url(#editing-extrusion)"><g transform="translate(45.73966673016548, 99)"><path d="M26.11-42.69L26.11-42.69L26.11-42.69Q41.79-42.69 41.79-31.62L41.79-31.62L41.79-31.62Q41.79-25.54 37.89-21.89L37.89-21.89L37.89-21.89Q34.05-18.24 27.33-18.24L27.33-18.24L27.33-18.24Q24.19-18.24 21.76-20.03L21.76-20.03L21.76-20.03Q20.61-20.80 19.84-21.82L19.84-21.82L19.84-21.82Q24.51-21.82 26.98-24.67L26.98-24.67L26.98-24.67Q29.44-27.52 29.44-33.09L29.44-33.09L29.44-33.09Q29.44-38.66 23.94-38.66L23.94-38.66L22.40-38.66L22.40-38.66Q22.02-38.66 21.70-38.59L21.70-38.59L14.34 0L0.45 0L8.32-41.92L8.32-41.92Q15.17-42.56 19.14-42.62L19.14-42.62L19.14-42.62Q23.10-42.69 26.11-42.69ZM62.66-2.69L62.66-2.69L62.66-2.69Q59.58 1.28 51.97 1.28L51.97 1.28L51.97 1.28Q48 1.28 45.12-1.12L45.12-1.12L45.12-1.12Q42.24-3.52 42.24-6.98L42.24-6.98L42.24-6.98Q42.24-8.90 42.43-9.86L42.43-9.86L46.72-32.64L59.71-33.92L55.04-9.22L55.04-9.22Q54.78-7.81 54.78-6.98L54.78-6.98L54.78-6.98Q54.78-3.26 57.02-3.26L57.02-3.26L57.02-3.26Q59.52-3.26 61.31-6.66L61.31-6.66L61.31-6.66Q61.89-7.74 62.14-9.15L62.14-9.15L66.69-32.64L79.30-33.92L74.56-8.96L74.56-8.96Q74.37-8 74.37-6.98L74.37-6.98L74.37-6.98Q74.37-5.95 74.94-4.83L74.94-4.83L74.94-4.83Q75.52-3.71 77.38-3.46L77.38-3.46L77.38-3.46Q76.99-1.92 75.65-0.90L75.65-0.90L75.65-0.90Q72.83 1.28 69.79 1.28L69.79 1.28L69.79 1.28Q66.75 1.28 64.96 0.19L64.96 0.19L64.96 0.19Q63.17-0.90 62.66-2.69ZM83.78-6.40L83.78-6.40L83.78-6.40Q83.78-8.13 84.67-12.48L84.67-12.48L88.06-29.76L84.29-29.76L84.54-31.68L84.54-31.68Q92.22-33.98 99.65-39.62L99.65-39.62L102.72-39.62L101.18-32.64L106.18-32.64L105.60-29.76L100.67-29.76L97.41-12.48L97.41-12.48Q96.58-8.51 96.58-7.17L96.58-7.17L96.58-7.17Q96.58-4.10 99.26-3.46L99.26-3.46L99.26-3.46Q98.62-1.28 96.32 0L96.32 0L96.32 0Q94.02 1.28 90.75 1.28L90.75 1.28L90.75 1.28Q87.49 1.28 85.63-0.77L85.63-0.77L85.63-0.77Q83.78-2.82 83.78-6.40ZM125.89-17.98L125.89-17.98L125.89-17.98Q128.19-22.08 128.19-26.24L128.19-26.24L128.19-26.24Q128.19-28.99 126.21-28.99L126.21-28.99L126.21-28.99Q124.67-28.99 123.07-26.37L123.07-26.37L123.07-26.37Q121.41-23.74 120.90-20.35L120.90-20.35L117.57 0L104.32 1.28L110.85-32.64L121.41-33.92L120.26-27.46L120.26-27.46Q123.39-33.92 130.43-33.92L130.43-33.92L130.43-33.92Q134.14-33.92 136.16-32L136.16-32L136.16-32Q138.18-30.08 138.18-26.14L138.18-26.14L138.18-26.14Q138.18-22.21 135.58-19.71L135.58-19.71L135.58-19.71Q132.99-17.22 128.58-17.22L128.58-17.22L128.58-17.22Q126.66-17.22 125.89-17.98ZM154.56-3.52L154.56-3.52L154.56-3.52Q152.58 1.28 146.24 1.28L146.24 1.28L146.24 1.28Q142.98 1.28 140.93-0.96L140.93-0.96L140.93-0.96Q139.20-2.94 139.20-4.93L139.20-4.93L139.20-4.93Q139.20-10.11 141.57-20.22L141.57-20.22L143.94-32.64L156.93-33.92L153.02-13.70L153.02-13.70Q151.94-8.96 151.94-7.30L151.94-7.30L151.94-7.30Q151.94-3.65 154.56-3.52ZM145.09-41.54L145.09-41.54L145.09-41.54Q145.09-44.03 147.17-45.38L147.17-45.38L147.17-45.38Q149.25-46.72 152.26-46.72L152.26-46.72L152.26-46.72Q155.26-46.72 157.09-45.38L157.09-45.38L157.09-45.38Q158.91-44.03 158.91-41.54L158.91-41.54L158.91-41.54Q158.91-39.04 156.90-37.76L156.90-37.76L156.90-37.76Q154.88-36.48 151.87-36.48L151.87-36.48L151.87-36.48Q148.86-36.48 146.98-37.76L146.98-37.76L146.98-37.76Q145.09-39.04 145.09-41.54ZM179.26 0L182.98-18.82L182.98-18.82Q181.12-36.16 174.59-39.87L174.59-39.87L174.59-39.87Q175.94-41.54 178.11-42.46L178.11-42.46L178.11-42.46Q180.29-43.39 182.91-43.39L182.91-43.39L182.91-43.39Q185.54-43.39 187.52-42.46L187.52-42.46L187.52-42.46Q189.50-41.54 190.78-39.55L190.78-39.55L190.78-39.55Q193.22-35.78 193.22-26.75L193.22-26.75L193.22-22.14L193.22-22.14Q197.06-33.41 200.90-38.27L200.90-38.27L200.90-38.27Q204.80-43.26 209.66-43.26L209.66-43.26L209.66-43.26Q211.58-43.26 212.86-42.27L212.86-42.27L212.86-42.27Q214.14-41.28 214.78-39.81L214.78-39.81L214.78-39.81Q209.86-37.63 205.12-31.36L205.12-31.36L205.12-31.36Q200.38-25.09 197.31-16.32L197.31-16.32L193.54 0L179.26 0ZM206.14-3.78L206.14-3.78L206.14-3.78Q206.14-6.21 208.03-7.55L208.03-7.55L208.03-7.55Q209.92-8.90 212.61-8.90L212.61-8.90L212.61-8.90Q215.30-8.90 216.93-7.55L216.93-7.55L216.93-7.55Q218.56-6.21 218.56-3.78L218.56-3.78L218.56-3.78Q218.56-1.34 216.74-0.03L216.74-0.03L216.74-0.03Q214.91 1.28 212.22 1.28L212.22 1.28L212.22 1.28Q209.54 1.28 207.84-0.03L207.84-0.03L207.84-0.03Q206.14-1.34 206.14-3.78ZM225.15-9.47L225.15-9.47L225.15-9.47Q225.15-11.97 225.79-15.17L225.79-15.17L230.98-42.24L245.12-42.24L240-14.98L240-14.98Q239.42-11.97 239.42-9.76L239.42-9.76L239.42-9.76Q239.42-7.55 240.35-6.40L240.35-6.40L240.35-6.40Q241.28-5.25 243.01-5.25L243.01-5.25L243.01-5.25Q244.74-5.25 245.82-5.70L245.82-5.70L245.82-5.70Q246.91-6.14 247.81-7.23L247.81-7.23L247.81-7.23Q249.54-9.41 250.62-14.98L250.62-14.98L255.81-42.24L265.47-42.24L260.35-15.04L260.35-15.04Q258.56-5.95 253.63-2.30L253.63-2.30L253.63-2.30Q248.83 1.28 239.36 1.28L239.36 1.28L239.36 1.28Q232.26 1.28 228.48-1.79L228.48-1.79L228.48-1.79Q225.15-4.48 225.15-9.47ZM267.78-6.40L267.78-6.40L267.78-6.40Q267.78-8.13 268.67-12.48L268.67-12.48L272.06-29.76L268.29-29.76L268.54-31.68L268.54-31.68Q276.22-33.98 283.65-39.62L283.65-39.62L286.72-39.62L285.18-32.64L290.18-32.64L289.60-29.76L284.67-29.76L281.41-12.48L281.41-12.48Q280.58-8.51 280.58-7.17L280.58-7.17L280.58-7.17Q280.58-4.10 283.26-3.46L283.26-3.46L283.26-3.46Q282.62-1.28 280.32 0L280.32 0L280.32 0Q278.02 1.28 274.75 1.28L274.75 1.28L274.75 1.28Q271.49 1.28 269.63-0.77L269.63-0.77L269.63-0.77Q267.78-2.82 267.78-6.40ZM292.38-1.92L292.38-1.92L292.38-1.92Q290.88-3.58 290.21-6.21L290.21-6.21L290.21-6.21Q289.54-8.83 289.54-13.12L289.54-13.12L289.54-13.12Q289.54-17.41 291.01-21.31L291.01-21.31L291.01-21.31Q292.48-25.22 295.17-28.03L295.17-28.03L295.17-28.03Q300.67-33.92 309.76-33.92L309.76-33.92L309.76-33.92Q313.02-33.92 315.39-32.83L315.39-32.83L326.34-33.92L321.60-8.96L321.60-8.96Q321.41-8.19 321.41-6.78L321.41-6.78L321.41-6.78Q321.41-5.38 322.27-4.48L322.27-4.48L322.27-4.48Q323.14-3.58 324.42-3.46L324.42-3.46L324.42-3.46Q323.78-1.28 321.44 0L321.44 0L321.44 0Q319.10 1.28 316.48 1.28L316.48 1.28L316.48 1.28Q313.86 1.28 312.10 0.29L312.10 0.29L312.10 0.29Q310.34-0.70 309.82-2.37L309.82-2.37L309.82-2.37Q308.80-0.77 306.62 0.26L306.62 0.26L306.62 0.26Q304.45 1.28 301.54 1.28L301.54 1.28L301.54 1.28Q298.62 1.28 296.26 0.51L296.26 0.51L296.26 0.51Q293.89-0.26 292.38-1.92ZM305.89-27.90L305.89-27.90L305.89-27.90Q305.15-26.75 304.51-24.80L304.51-24.80L304.51-24.80Q303.87-22.85 302.82-17.63L302.82-17.63L302.82-17.63Q301.76-12.42 301.76-8.70L301.76-8.70L301.76-8.70Q301.76-4.99 302.34-3.90L302.34-3.90L302.34-3.90Q302.91-2.82 303.94-2.82L303.94-2.82L303.94-2.82Q305.98-2.82 307.49-4.77L307.49-4.77L307.49-4.77Q308.99-6.72 309.57-10.18L309.57-10.18L312.96-28.93L312.96-28.93Q311.62-30.08 310.05-30.08L310.05-30.08L310.05-30.08Q308.48-30.08 307.55-29.57L307.55-29.57L307.55-29.57Q306.62-29.06 305.89-27.90ZM375.87 1.28L375.87 1.28L375.87 1.28Q368.13 1.28 368.13-4.74L368.13-4.74L368.13-4.74Q368.13-7.36 369.25-12.45L369.25-12.45L369.25-12.45Q370.37-17.54 370.75-19.58L370.75-19.58L370.75-19.58Q371.65-24.26 371.65-25.73L371.65-25.73L371.65-25.73Q371.65-28.99 369.22-28.99L369.22-28.99L369.22-28.99Q367.62-28.99 366.08-26.78L366.08-26.78L366.08-26.78Q364.54-24.58 363.84-20.16L363.84-20.16L359.87 0L347.39 1.28L350.85-16.13L350.85-16.13Q351.42-19.01 351.94-22.27L351.94-22.27L351.94-22.27Q352.45-25.54 352.45-26.05L352.45-26.05L352.45-26.05Q352.45-28.99 350.27-28.99L350.27-28.99L350.27-28.99Q348.80-28.99 347.20-26.82L347.20-26.82L347.20-26.82Q345.60-24.64 344.70-20.16L344.70-20.16L340.80 0L328.19 1.28L334.91-32.64L345.34-33.92L344.26-27.46L344.26-27.46Q345.92-30.91 348.99-32.42L348.99-32.42L348.99-32.42Q352.06-33.92 356.86-33.92L356.86-33.92L356.86-33.92Q359.62-33.92 361.41-32.58L361.41-32.58L361.41-32.58Q363.20-31.23 363.78-29.06L363.78-29.06L363.78-29.06Q364.86-31.30 367.65-32.61L367.65-32.61L367.65-32.61Q370.43-33.92 373.86-33.92L373.86-33.92L373.86-33.92Q377.28-33.92 378.98-33.18L378.98-33.18L378.98-33.18Q380.67-32.45 381.70-31.23L381.70-31.23L381.70-31.23Q383.42-28.99 383.42-24.90L383.42-24.90L383.42-24.90Q383.42-20.86 381.70-12.48L381.70-12.48L381.70-12.48Q380.80-8.38 380.80-6.88L380.80-6.88L380.80-6.88Q380.80-5.38 381.66-4.48L381.66-4.48L381.66-4.48Q382.53-3.58 383.81-3.46L383.81-3.46L383.81-3.46Q383.17-1.28 380.96 0L380.96 0L380.96 0Q378.75 1.28 375.87 1.28ZM404.10-3.52L404.10-3.52L404.10-3.52Q402.11 1.28 395.78 1.28L395.78 1.28L395.78 1.28Q392.51 1.28 390.46-0.96L390.46-0.96L390.46-0.96Q388.74-2.94 388.74-4.93L388.74-4.93L388.74-4.93Q388.74-10.11 391.10-20.22L391.10-20.22L393.47-32.64L406.46-33.92L402.56-13.70L402.56-13.70Q401.47-8.96 401.47-7.30L401.47-7.30L401.47-7.30Q401.47-3.65 404.10-3.52ZM394.62-41.54L394.62-41.54L394.62-41.54Q394.62-44.03 396.70-45.38L396.70-45.38L396.70-45.38Q398.78-46.72 401.79-46.72L401.79-46.72L401.79-46.72Q404.80-46.72 406.62-45.38L406.62-45.38L406.62-45.38Q408.45-44.03 408.45-41.54L408.45-41.54L408.45-41.54Q408.45-39.04 406.43-37.76L406.43-37.76L406.43-37.76Q404.42-36.48 401.41-36.48L401.41-36.48L401.41-36.48Q398.40-36.48 396.51-37.76L396.51-37.76L396.51-37.76Q394.62-39.04 394.62-41.54Z" fill="#ccc"></path></g></g><style>text {
  font-size: 64px;
  font-family: Arial Black;
  dominant-baseline: central;
  text-anchor: middle;
}</style></svg>